<svg width="64" height="64" viewBox="0 0 64 64" fill="none" xmlns="http://www.w3.org/2000/svg">
<path fill-rule="evenodd" clip-rule="evenodd" d="M47 11H17C16.4477 11 16 11.4477 16 12V52C16 52.5523 16.4477 53 17 53H47C47.5523 53 48 52.5523 48 52V12C48 11.4477 47.5523 11 47 11ZM17 9C15.3431 9 14 10.3431 14 12V52C14 53.6569 15.3431 55 17 55H47C48.6569 55 50 53.6569 50 52V12C50 10.3431 48.6569 9 47 9H17Z" fill="black"/>
<path fill-rule="evenodd" clip-rule="evenodd" d="M19 16.5C19 15.9477 19.4477 15.5 20 15.5H21.5C22.0523 15.5 22.5 15.9477 22.5 16.5C22.5 17.0523 22.0523 17.5 21.5 17.5H20C19.4477 17.5 19 17.0523 19 16.5ZM26.5 16.5C26.5 15.9477 26.9477 15.5 27.5 15.5H43.5C44.0523 15.5 44.5 15.9477 44.5 16.5C44.5 17.0523 44.0523 17.5 43.5 17.5H27.5C26.9477 17.5 26.5 17.0523 26.5 16.5Z" fill="black"/>
<path fill-rule="evenodd" clip-rule="evenodd" d="M19 23C19 22.4477 19.4477 22 20 22H21.5C22.0523 22 22.5 22.4477 22.5 23C22.5 23.5523 22.0523 24 21.5 24H20C19.4477 24 19 23.5523 19 23ZM26.5 23C26.5 22.4477 26.9477 22 27.5 22H43.5C44.0523 22 44.5 22.4477 44.5 23C44.5 23.5523 44.0523 24 43.5 24H27.5C26.9477 24 26.5 23.5523 26.5 23Z" fill="black"/>
<path fill-rule="evenodd" clip-rule="evenodd" d="M19 29.5C19 28.9477 19.4477 28.5 20 28.5H21.5C22.0523 28.5 22.5 28.9477 22.5 29.5C22.5 30.0523 22.0523 30.5 21.5 30.5H20C19.4477 30.5 19 30.0523 19 29.5ZM26.5 29.5C26.5 28.9477 26.9477 28.5 27.5 28.5H43.5C44.0523 28.5 44.5 28.9477 44.5 29.5C44.5 30.0523 44.0523 30.5 43.5 30.5H27.5C26.9477 30.5 26.5 30.0523 26.5 29.5Z" fill="black"/>
<path fill-rule="evenodd" clip-rule="evenodd" d="M19 36C19 35.4477 19.4477 35 20 35H21.5C22.0523 35 22.5 35.4477 22.5 36C22.5 36.5523 22.0523 37 21.5 37H20C19.4477 37 19 36.5523 19 36ZM26.5 36C26.5 35.4477 26.9477 35 27.5 35H43.5C44.0523 35 44.5 35.4477 44.5 36C44.5 36.5523 44.0523 37 43.5 37H27.5C26.9477 37 26.5 36.5523 26.5 36Z" fill="black"/>
<path fill-rule="evenodd" clip-rule="evenodd" d="M19 42.5C19 41.9477 19.4477 41.5 20 41.5H21.5C22.0523 41.5 22.5 41.9477 22.5 42.5C22.5 43.0523 22.0523 43.5 21.5 43.5H20C19.4477 43.5 19 43.0523 19 42.5ZM26.5 42.5C26.5 41.9477 26.9477 41.5 27.5 41.5H43.5C44.0523 41.5 44.5 41.9477 44.5 42.5C44.5 43.0523 44.0523 43.5 43.5 43.5H27.5C26.9477 43.5 26.5 43.0523 26.5 42.5Z" fill="black"/>
</svg>
